<svg width="268" height="250" viewBox="0 0 268 250" fill="none" xmlns="http://www.w3.org/2000/svg">
<path d="M80 0C78.8956 0 78 0.8864 78 1.98C78 2.8628 78.35 4.958 81.7952 7.076C81.8569 7.11355 81.9278 7.13341 82 7.13341C82.0722 7.13341 82.1431 7.11355 82.2048 7.076C85.65 4.958 86 2.8628 86 1.98C86 0.8864 85.1044 0 84 0C82.8956 0 82 1.2 82 1.2C82 1.2 81.1044 0 80 0Z" fill="#FF0505"/>
<path d="M80 12.1334C78.8956 12.1334 78 13.0198 78 14.1134C78 14.9962 78.35 17.0914 81.7952 19.2094C81.8569 19.247 81.9278 19.2668 82 19.2668C82.0722 19.2668 82.1431 19.247 82.2048 19.2094C85.65 17.0914 86 14.9962 86 14.1134C86 13.0198 85.1044 12.1334 84 12.1334C82.8956 12.1334 82 13.3334 82 13.3334C82 13.3334 81.1044 12.1334 80 12.1334Z" fill="#FF0505"/>
<path d="M80 24.2668C78.8956 24.2668 78 25.1532 78 26.2468C78 27.1296 78.35 29.2248 81.7952 31.3428C81.8569 31.3804 81.9278 31.4002 82 31.4002C82.0722 31.4002 82.1431 31.3804 82.2048 31.3428C85.65 29.2248 86 27.1296 86 26.2468C86 25.1532 85.1044 24.2668 84 24.2668C82.8956 24.2668 82 25.4668 82 25.4668C82 25.4668 81.1044 24.2668 80 24.2668Z" fill="#FF0505"/>
<path d="M80 36.4002C78.8956 36.4002 78 37.2866 78 38.3802C78 39.263 78.35 41.3582 81.7952 43.4762C81.8569 43.5138 81.9278 43.5336 82 43.5336C82.0722 43.5336 82.1431 43.5138 82.2048 43.4762C85.65 41.3582 86 39.263 86 38.3802C86 37.2866 85.1044 36.4002 84 36.4002C82.8956 36.4002 82 37.6002 82 37.6002C82 37.6002 81.1044 36.4002 80 36.4002Z" fill="#FF0505"/>
<path d="M80 48.5336C78.8956 48.5336 78 49.42 78 50.5136C78 51.3964 78.35 53.4916 81.7952 55.6096C81.8569 55.6472 81.9278 55.667 82 55.667C82.0722 55.667 82.1431 55.6472 82.2048 55.6096C85.65 53.4916 86 51.3964 86 50.5136C86 49.42 85.1044 48.5336 84 48.5336C82.8956 48.5336 82 49.7336 82 49.7336C82 49.7336 81.1044 48.5336 80 48.5336Z" fill="#FF0505"/>
<path d="M80 60.667C78.8956 60.667 78 61.5534 78 62.647C78 63.5298 78.35 65.625 81.7952 67.743C81.8569 67.7806 81.9278 67.8005 82 67.8005C82.0722 67.8005 82.1431 67.7806 82.2048 67.743C85.65 65.625 86 63.5298 86 62.647C86 61.5534 85.1044 60.667 84 60.667C82.8956 60.667 82 61.867 82 61.867C82 61.867 81.1044 60.667 80 60.667Z" fill="#FF0505"/>
<path d="M80 72.8005C78.8956 72.8005 78 73.6869 78 74.7805C78 75.6633 78.35 77.7585 81.7952 79.8765C81.8569 79.914 81.9278 79.9339 82 79.9339C82.0722 79.9339 82.1431 79.914 82.2048 79.8765C85.65 77.7585 86 75.6633 86 74.7805C86 73.6869 85.1044 72.8005 84 72.8005C82.8956 72.8005 82 74.0005 82 74.0005C82 74.0005 81.1044 72.8005 80 72.8005Z" fill="#FF0505"/>
<path d="M80 84.9339C78.8956 84.9339 78 85.8203 78 86.9139C78 87.7967 78.35 89.8919 81.7952 92.0099C81.8569 92.0474 81.9278 92.0673 82 92.0673C82.0722 92.0673 82.1431 92.0474 82.2048 92.0099C85.65 89.8919 86 87.7967 86 86.9139C86 85.8203 85.1044 84.9339 84 84.9339C82.8956 84.9339 82 86.1339 82 86.1339C82 86.1339 81.1044 84.9339 80 84.9339Z" fill="#FF0505"/>
<path d="M80 97.0673C78.8956 97.0673 78 97.9537 78 99.0473C78 99.9301 78.35 102.025 81.7952 104.143C81.8569 104.181 81.9278 104.201 82 104.201C82.0722 104.201 82.1431 104.181 82.2048 104.143C85.65 102.025 86 99.9301 86 99.0473C86 97.9537 85.1044 97.0673 84 97.0673C82.8956 97.0673 82 98.2673 82 98.2673C82 98.2673 81.1044 97.0673 80 97.0673Z" fill="#FF0505"/>
<path d="M80 109.201C78.8956 109.201 78 110.087 78 111.181C78 112.063 78.35 114.159 81.7952 116.277C81.8569 116.314 81.9278 116.334 82 116.334C82.0722 116.334 82.1431 116.314 82.2048 116.277C85.65 114.159 86 112.063 86 111.181C86 110.087 85.1044 109.201 84 109.201C82.8956 109.201 82 110.401 82 110.401C82 110.401 81.1044 109.201 80 109.201Z" fill="#FF0505"/>
<path d="M80 121.334C78.8956 121.334 78 122.22 78 123.314C78 124.197 78.35 126.292 81.7952 128.41C81.8569 128.448 81.9278 128.467 82 128.467C82.0722 128.467 82.1431 128.448 82.2048 128.41C85.65 126.292 86 124.197 86 123.314C86 122.22 85.1044 121.334 84 121.334C82.8956 121.334 82 122.534 82 122.534C82 122.534 81.1044 121.334 80 121.334Z" fill="#FF0505"/>
<path d="M80 133.467C78.8956 133.467 78 134.354 78 135.447C78 136.33 78.35 138.425 81.7952 140.543C81.8569 140.581 81.9278 140.601 82 140.601C82.0722 140.601 82.1431 140.581 82.2048 140.543C85.65 138.425 86 136.33 86 135.447C86 134.354 85.1044 133.467 84 133.467C82.8956 133.467 82 134.667 82 134.667C82 134.667 81.1044 133.467 80 133.467Z" fill="#FF0505"/>
<path d="M80 145.601C78.8956 145.601 78 146.487 78 147.581C78 148.464 78.35 150.559 81.7952 152.677C81.8569 152.714 81.9278 152.734 82 152.734C82.0722 152.734 82.1431 152.714 82.2048 152.677C85.65 150.559 86 148.464 86 147.581C86 146.487 85.1044 145.601 84 145.601C82.8956 145.601 82 146.801 82 146.801C82 146.801 81.1044 145.601 80 145.601Z" fill="#FF0505"/>
<path d="M80 157.734C78.8956 157.734 78 158.621 78 159.714C78 160.597 78.35 162.692 81.7952 164.81C81.8569 164.848 81.9278 164.868 82 164.868C82.0722 164.868 82.1431 164.848 82.2048 164.81C85.65 162.692 86 160.597 86 159.714C86 158.621 85.1044 157.734 84 157.734C82.8956 157.734 82 158.934 82 158.934C82 158.934 81.1044 157.734 80 157.734Z" fill="#FF0505"/>
<path d="M80 169.868C78.8956 169.868 78 170.754 78 171.848C78 172.731 78.35 174.826 81.7952 176.944C81.8569 176.981 81.9278 177.001 82 177.001C82.0722 177.001 82.1431 176.981 82.2048 176.944C85.65 174.826 86 172.731 86 171.848C86 170.754 85.1044 169.868 84 169.868C82.8956 169.868 82 171.068 82 171.068C82 171.068 81.1044 169.868 80 169.868Z" fill="#FF0505"/>
<path d="M80 182.001C78.8956 182.001 78 182.888 78 183.981C78 184.864 78.35 186.959 81.7952 189.077C81.8569 189.115 81.9278 189.135 82 189.135C82.0722 189.135 82.1431 189.115 82.2048 189.077C85.65 186.959 86 184.864 86 183.981C86 182.888 85.1044 182.001 84 182.001C82.8956 182.001 82 183.201 82 183.201C82 183.201 81.1044 182.001 80 182.001Z" fill="#FF0505"/>
<path d="M80 194.135C78.8956 194.135 78 195.021 78 196.115C78 196.997 78.35 199.093 81.7952 201.211C81.8569 201.248 81.9278 201.268 82 201.268C82.0722 201.268 82.1431 201.248 82.2048 201.211C85.65 199.093 86 196.997 86 196.115C86 195.021 85.1044 194.135 84 194.135C82.8956 194.135 82 195.335 82 195.335C82 195.335 81.1044 194.135 80 194.135Z" fill="#FF0505"/>
<path d="M80 206.268C78.8956 206.268 78 207.154 78 208.248C78 209.131 78.35 211.226 81.7952 213.344C81.8569 213.381 81.9278 213.401 82 213.401C82.0722 213.401 82.1431 213.381 82.2048 213.344C85.65 211.226 86 209.131 86 208.248C86 207.154 85.1044 206.268 84 206.268C82.8956 206.268 82 207.468 82 207.468C82 207.468 81.1044 206.268 80 206.268Z" fill="#FF0505"/>
<path d="M80 218.401C78.8956 218.401 78 219.288 78 220.381C78 221.264 78.35 223.359 81.7952 225.477C81.8569 225.515 81.9278 225.535 82 225.535C82.0722 225.535 82.1431 225.515 82.2048 225.477C85.65 223.359 86 221.264 86 220.381C86 219.288 85.1044 218.401 84 218.401C82.8956 218.401 82 219.601 82 219.601C82 219.601 81.1044 218.401 80 218.401Z" fill="#FF0505"/>
<path d="M80 230.535C78.8956 230.535 78 231.421 78 232.515C78 233.398 78.35 235.493 81.7952 237.611C81.8569 237.648 81.9278 237.668 82 237.668C82.0722 237.668 82.1431 237.648 82.2048 237.611C85.65 235.493 86 233.398 86 232.515C86 231.421 85.1044 230.535 84 230.535C82.8956 230.535 82 231.735 82 231.735C82 231.735 81.1044 230.535 80 230.535Z" fill="#FF0505"/>
<path d="M80 242.668C78.8956 242.668 78 243.555 78 244.648C78 245.531 78.35 247.626 81.7952 249.744C81.8569 249.782 81.9278 249.802 82 249.802C82.0722 249.802 82.1431 249.782 82.2048 249.744C85.65 247.626 86 245.531 86 244.648C86 243.555 85.1044 242.668 84 242.668C82.8956 242.668 82 243.868 82 243.868C82 243.868 81.1044 242.668 80 242.668Z" fill="#FF0505"/>
<path d="M2 73C0.8956 73 0 73.8864 0 74.98C0 75.8628 0.35 77.958 3.7952 80.076C3.85691 80.1135 3.92776 80.1334 4 80.1334C4.07224 80.1334 4.14309 80.1135 4.2048 80.076C7.65 77.958 8 75.8628 8 74.98C8 73.8864 7.1044 73 6 73C4.8956 73 4 74.2 4 74.2C4 74.2 3.1044 73 2 73Z" fill="#FF0505"/>
<path d="M15 73C13.8956 73 13 73.8864 13 74.98C13 75.8628 13.35 77.958 16.7952 80.076C16.8569 80.1135 16.9278 80.1334 17 80.1334C17.0722 80.1334 17.1431 80.1135 17.2048 80.076C20.65 77.958 21 75.8628 21 74.98C21 73.8864 20.1044 73 19 73C17.8956 73 17 74.2 17 74.2C17 74.2 16.1044 73 15 73Z" fill="#FF0505"/>
<path d="M28 73C26.8956 73 26 73.8864 26 74.98C26 75.8628 26.35 77.958 29.7952 80.076C29.8569 80.1135 29.9278 80.1334 30 80.1334C30.0722 80.1334 30.1431 80.1135 30.2048 80.076C33.65 77.958 34 75.8628 34 74.98C34 73.8864 33.1044 73 32 73C30.8956 73 30 74.2 30 74.2C30 74.2 29.1044 73 28 73Z" fill="#FF0505"/>
<path d="M41 73C39.8956 73 39 73.8864 39 74.98C39 75.8628 39.35 77.958 42.7952 80.076C42.8569 80.1135 42.9278 80.1334 43 80.1334C43.0722 80.1334 43.1431 80.1135 43.2048 80.076C46.65 77.958 47 75.8628 47 74.98C47 73.8864 46.1044 73 45 73C43.8956 73 43 74.2 43 74.2C43 74.2 42.1044 73 41 73Z" fill="#FF0505"/>
<path d="M54 73C52.8956 73 52 73.8864 52 74.98C52 75.8628 52.35 77.958 55.7952 80.076C55.8569 80.1135 55.9278 80.1334 56 80.1334C56.0722 80.1334 56.1431 80.1135 56.2048 80.076C59.65 77.958 60 75.8628 60 74.98C60 73.8864 59.1044 73 58 73C56.8956 73 56 74.2 56 74.2C56 74.2 55.1044 73 54 73Z" fill="#FF0505"/>
<path d="M67 73C65.8956 73 65 73.8864 65 74.98C65 75.8628 65.35 77.958 68.7952 80.076C68.8569 80.1135 68.9278 80.1334 69 80.1334C69.0722 80.1334 69.1431 80.1135 69.2048 80.076C72.65 77.958 73 75.8628 73 74.98C73 73.8864 72.1044 73 71 73C69.8956 73 69 74.2 69 74.2C69 74.2 68.1044 73 67 73Z" fill="#FF0505"/>
<path d="M80 73C78.8956 73 78 73.8864 78 74.98C78 75.8628 78.35 77.958 81.7952 80.076C81.8569 80.1135 81.9278 80.1334 82 80.1334C82.0722 80.1334 82.1431 80.1135 82.2048 80.076C85.65 77.958 86 75.8628 86 74.98C86 73.8864 85.1044 73 84 73C82.8956 73 82 74.2 82 74.2C82 74.2 81.1044 73 80 73Z" fill="#FF0505"/>
<path d="M93 73C91.8956 73 91 73.8864 91 74.98C91 75.8628 91.35 77.958 94.7952 80.076C94.8569 80.1135 94.9278 80.1334 95 80.1334C95.0722 80.1334 95.1431 80.1135 95.2048 80.076C98.65 77.958 99 75.8628 99 74.98C99 73.8864 98.1044 73 97 73C95.8956 73 95 74.2 95 74.2C95 74.2 94.1044 73 93 73Z" fill="#FF0505"/>
<path d="M106 73C104.896 73 104 73.8864 104 74.98C104 75.8628 104.35 77.958 107.795 80.076C107.857 80.1135 107.928 80.1334 108 80.1334C108.072 80.1334 108.143 80.1135 108.205 80.076C111.65 77.958 112 75.8628 112 74.98C112 73.8864 111.104 73 110 73C108.896 73 108 74.2 108 74.2C108 74.2 107.104 73 106 73Z" fill="#FF0505"/>
<path d="M119 73C117.896 73 117 73.8864 117 74.98C117 75.8628 117.35 77.958 120.795 80.076C120.857 80.1135 120.928 80.1334 121 80.1334C121.072 80.1334 121.143 80.1135 121.205 80.076C124.65 77.958 125 75.8628 125 74.98C125 73.8864 124.104 73 123 73C121.896 73 121 74.2 121 74.2C121 74.2 120.104 73 119 73Z" fill="#FF0505"/>
<path d="M132 73C130.896 73 130 73.8864 130 74.98C130 75.8628 130.35 77.958 133.795 80.076C133.857 80.1135 133.928 80.1334 134 80.1334C134.072 80.1334 134.143 80.1135 134.205 80.076C137.65 77.958 138 75.8628 138 74.98C138 73.8864 137.104 73 136 73C134.896 73 134 74.2 134 74.2C134 74.2 133.104 73 132 73Z" fill="#FF0505"/>
<path d="M145 73C143.896 73 143 73.8864 143 74.98C143 75.8628 143.35 77.958 146.795 80.076C146.857 80.1135 146.928 80.1334 147 80.1334C147.072 80.1334 147.143 80.1135 147.205 80.076C150.65 77.958 151 75.8628 151 74.98C151 73.8864 150.104 73 149 73C147.896 73 147 74.2 147 74.2C147 74.2 146.104 73 145 73Z" fill="#FF0505"/>
<path d="M158 73C156.896 73 156 73.8864 156 74.98C156 75.8628 156.35 77.958 159.795 80.076C159.857 80.1135 159.928 80.1334 160 80.1334C160.072 80.1334 160.143 80.1135 160.205 80.076C163.65 77.958 164 75.8628 164 74.98C164 73.8864 163.104 73 162 73C160.896 73 160 74.2 160 74.2C160 74.2 159.104 73 158 73Z" fill="#FF0505"/>
<path d="M171 73C169.896 73 169 73.8864 169 74.98C169 75.8628 169.35 77.958 172.795 80.076C172.857 80.1135 172.928 80.1334 173 80.1334C173.072 80.1334 173.143 80.1135 173.205 80.076C176.65 77.958 177 75.8628 177 74.98C177 73.8864 176.104 73 175 73C173.896 73 173 74.2 173 74.2C173 74.2 172.104 73 171 73Z" fill="#FF0505"/>
<path d="M184 73C182.896 73 182 73.8864 182 74.98C182 75.8628 182.35 77.958 185.795 80.076C185.857 80.1135 185.928 80.1334 186 80.1334C186.072 80.1334 186.143 80.1135 186.205 80.076C189.65 77.958 190 75.8628 190 74.98C190 73.8864 189.104 73 188 73C186.896 73 186 74.2 186 74.2C186 74.2 185.104 73 184 73Z" fill="#FF0505"/>
<path d="M197 73C195.896 73 195 73.8864 195 74.98C195 75.8628 195.35 77.958 198.795 80.076C198.857 80.1135 198.928 80.1334 199 80.1334C199.072 80.1334 199.143 80.1135 199.205 80.076C202.65 77.958 203 75.8628 203 74.98C203 73.8864 202.104 73 201 73C199.896 73 199 74.2 199 74.2C199 74.2 198.104 73 197 73Z" fill="#FF0505"/>
<path d="M210 73C208.896 73 208 73.8864 208 74.98C208 75.8628 208.35 77.958 211.795 80.076C211.857 80.1135 211.928 80.1334 212 80.1334C212.072 80.1334 212.143 80.1135 212.205 80.076C215.65 77.958 216 75.8628 216 74.98C216 73.8864 215.104 73 214 73C212.896 73 212 74.2 212 74.2C212 74.2 211.104 73 210 73Z" fill="#FF0505"/>
<path d="M223 73C221.896 73 221 73.8864 221 74.98C221 75.8628 221.35 77.958 224.795 80.076C224.857 80.1135 224.928 80.1334 225 80.1334C225.072 80.1334 225.143 80.1135 225.205 80.076C228.65 77.958 229 75.8628 229 74.98C229 73.8864 228.104 73 227 73C225.896 73 225 74.2 225 74.2C225 74.2 224.104 73 223 73Z" fill="#FF0505"/>
<path d="M236 73C234.896 73 234 73.8864 234 74.98C234 75.8628 234.35 77.958 237.795 80.076C237.857 80.1135 237.928 80.1334 238 80.1334C238.072 80.1334 238.143 80.1135 238.205 80.076C241.65 77.958 242 75.8628 242 74.98C242 73.8864 241.104 73 240 73C238.896 73 238 74.2 238 74.2C238 74.2 237.104 73 236 73Z" fill="#FF0505"/>
<path d="M249 73C247.896 73 247 73.8864 247 74.98C247 75.8628 247.35 77.958 250.795 80.076C250.857 80.1135 250.928 80.1334 251 80.1334C251.072 80.1334 251.143 80.1135 251.205 80.076C254.65 77.958 255 75.8628 255 74.98C255 73.8864 254.104 73 253 73C251.896 73 251 74.2 251 74.2C251 74.2 250.104 73 249 73Z" fill="#FF0505"/>
<path d="M262 73C260.896 73 260 73.8864 260 74.98C260 75.8628 260.35 77.958 263.795 80.076C263.857 80.1135 263.928 80.1334 264 80.1334C264.072 80.1334 264.143 80.1135 264.205 80.076C267.65 77.958 268 75.8628 268 74.98C268 73.8864 267.104 73 266 73C264.896 73 264 74.2 264 74.2C264 74.2 263.104 73 262 73Z" fill="#FF0505"/>
<path d="M2 170C0.8956 170 0 170.886 0 171.98C0 172.863 0.35 174.958 3.7952 177.076C3.85691 177.114 3.92776 177.133 4 177.133C4.07224 177.133 4.14309 177.114 4.2048 177.076C7.65 174.958 8 172.863 8 171.98C8 170.886 7.1044 170 6 170C4.8956 170 4 171.2 4 171.2C4 171.2 3.1044 170 2 170Z" fill="#FF0505"/>
<path d="M15 170C13.8956 170 13 170.886 13 171.98C13 172.863 13.35 174.958 16.7952 177.076C16.8569 177.114 16.9278 177.133 17 177.133C17.0722 177.133 17.1431 177.114 17.2048 177.076C20.65 174.958 21 172.863 21 171.98C21 170.886 20.1044 170 19 170C17.8956 170 17 171.2 17 171.2C17 171.2 16.1044 170 15 170Z" fill="#FF0505"/>
<path d="M28 170C26.8956 170 26 170.886 26 171.98C26 172.863 26.35 174.958 29.7952 177.076C29.8569 177.114 29.9278 177.133 30 177.133C30.0722 177.133 30.1431 177.114 30.2048 177.076C33.65 174.958 34 172.863 34 171.98C34 170.886 33.1044 170 32 170C30.8956 170 30 171.2 30 171.2C30 171.2 29.1044 170 28 170Z" fill="#FF0505"/>
<path d="M41 170C39.8956 170 39 170.886 39 171.98C39 172.863 39.35 174.958 42.7952 177.076C42.8569 177.114 42.9278 177.133 43 177.133C43.0722 177.133 43.1431 177.114 43.2048 177.076C46.65 174.958 47 172.863 47 171.98C47 170.886 46.1044 170 45 170C43.8956 170 43 171.2 43 171.2C43 171.2 42.1044 170 41 170Z" fill="#FF0505"/>
<path d="M54 170C52.8956 170 52 170.886 52 171.98C52 172.863 52.35 174.958 55.7952 177.076C55.8569 177.114 55.9278 177.133 56 177.133C56.0722 177.133 56.1431 177.114 56.2048 177.076C59.65 174.958 60 172.863 60 171.98C60 170.886 59.1044 170 58 170C56.8956 170 56 171.2 56 171.2C56 171.2 55.1044 170 54 170Z" fill="#FF0505"/>
<path d="M67 170C65.8956 170 65 170.886 65 171.98C65 172.863 65.35 174.958 68.7952 177.076C68.8569 177.114 68.9278 177.133 69 177.133C69.0722 177.133 69.1431 177.114 69.2048 177.076C72.65 174.958 73 172.863 73 171.98C73 170.886 72.1044 170 71 170C69.8956 170 69 171.2 69 171.2C69 171.2 68.1044 170 67 170Z" fill="#FF0505"/>
<path d="M80 170C78.8956 170 78 170.886 78 171.98C78 172.863 78.35 174.958 81.7952 177.076C81.8569 177.114 81.9278 177.133 82 177.133C82.0722 177.133 82.1431 177.114 82.2048 177.076C85.65 174.958 86 172.863 86 171.98C86 170.886 85.1044 170 84 170C82.8956 170 82 171.2 82 171.2C82 171.2 81.1044 170 80 170Z" fill="#FF0505"/>
<path d="M93 170C91.8956 170 91 170.886 91 171.98C91 172.863 91.35 174.958 94.7952 177.076C94.8569 177.114 94.9278 177.133 95 177.133C95.0722 177.133 95.1431 177.114 95.2048 177.076C98.65 174.958 99 172.863 99 171.98C99 170.886 98.1044 170 97 170C95.8956 170 95 171.2 95 171.2C95 171.2 94.1044 170 93 170Z" fill="#FF0505"/>
<path d="M106 170C104.896 170 104 170.886 104 171.98C104 172.863 104.35 174.958 107.795 177.076C107.857 177.114 107.928 177.133 108 177.133C108.072 177.133 108.143 177.114 108.205 177.076C111.65 174.958 112 172.863 112 171.98C112 170.886 111.104 170 110 170C108.896 170 108 171.2 108 171.2C108 171.2 107.104 170 106 170Z" fill="#FF0505"/>
<path d="M119 170C117.896 170 117 170.886 117 171.98C117 172.863 117.35 174.958 120.795 177.076C120.857 177.114 120.928 177.133 121 177.133C121.072 177.133 121.143 177.114 121.205 177.076C124.65 174.958 125 172.863 125 171.98C125 170.886 124.104 170 123 170C121.896 170 121 171.2 121 171.2C121 171.2 120.104 170 119 170Z" fill="#FF0505"/>
<path d="M132 170C130.896 170 130 170.886 130 171.98C130 172.863 130.35 174.958 133.795 177.076C133.857 177.114 133.928 177.133 134 177.133C134.072 177.133 134.143 177.114 134.205 177.076C137.65 174.958 138 172.863 138 171.98C138 170.886 137.104 170 136 170C134.896 170 134 171.2 134 171.2C134 171.2 133.104 170 132 170Z" fill="#FF0505"/>
<path d="M145 170C143.896 170 143 170.886 143 171.98C143 172.863 143.35 174.958 146.795 177.076C146.857 177.114 146.928 177.133 147 177.133C147.072 177.133 147.143 177.114 147.205 177.076C150.65 174.958 151 172.863 151 171.98C151 170.886 150.104 170 149 170C147.896 170 147 171.2 147 171.2C147 171.2 146.104 170 145 170Z" fill="#FF0505"/>
<path d="M158 170C156.896 170 156 170.886 156 171.98C156 172.863 156.35 174.958 159.795 177.076C159.857 177.114 159.928 177.133 160 177.133C160.072 177.133 160.143 177.114 160.205 177.076C163.65 174.958 164 172.863 164 171.98C164 170.886 163.104 170 162 170C160.896 170 160 171.2 160 171.2C160 171.2 159.104 170 158 170Z" fill="#FF0505"/>
<path d="M171 170C169.896 170 169 170.886 169 171.98C169 172.863 169.35 174.958 172.795 177.076C172.857 177.114 172.928 177.133 173 177.133C173.072 177.133 173.143 177.114 173.205 177.076C176.65 174.958 177 172.863 177 171.98C177 170.886 176.104 170 175 170C173.896 170 173 171.2 173 171.2C173 171.2 172.104 170 171 170Z" fill="#FF0505"/>
<path d="M184 170C182.896 170 182 170.886 182 171.98C182 172.863 182.35 174.958 185.795 177.076C185.857 177.114 185.928 177.133 186 177.133C186.072 177.133 186.143 177.114 186.205 177.076C189.65 174.958 190 172.863 190 171.98C190 170.886 189.104 170 188 170C186.896 170 186 171.2 186 171.2C186 171.2 185.104 170 184 170Z" fill="#FF0505"/>
<path d="M197 170C195.896 170 195 170.886 195 171.98C195 172.863 195.35 174.958 198.795 177.076C198.857 177.114 198.928 177.133 199 177.133C199.072 177.133 199.143 177.114 199.205 177.076C202.65 174.958 203 172.863 203 171.98C203 170.886 202.104 170 201 170C199.896 170 199 171.2 199 171.2C199 171.2 198.104 170 197 170Z" fill="#FF0505"/>
<path d="M210 170C208.896 170 208 170.886 208 171.98C208 172.863 208.35 174.958 211.795 177.076C211.857 177.114 211.928 177.133 212 177.133C212.072 177.133 212.143 177.114 212.205 177.076C215.65 174.958 216 172.863 216 171.98C216 170.886 215.104 170 214 170C212.896 170 212 171.2 212 171.2C212 171.2 211.104 170 210 170Z" fill="#FF0505"/>
<path d="M223 170C221.896 170 221 170.886 221 171.98C221 172.863 221.35 174.958 224.795 177.076C224.857 177.114 224.928 177.133 225 177.133C225.072 177.133 225.143 177.114 225.205 177.076C228.65 174.958 229 172.863 229 171.98C229 170.886 228.104 170 227 170C225.896 170 225 171.2 225 171.2C225 171.2 224.104 170 223 170Z" fill="#FF0505"/>
<path d="M236 170C234.896 170 234 170.886 234 171.98C234 172.863 234.35 174.958 237.795 177.076C237.857 177.114 237.928 177.133 238 177.133C238.072 177.133 238.143 177.114 238.205 177.076C241.65 174.958 242 172.863 242 171.98C242 170.886 241.104 170 240 170C238.896 170 238 171.2 238 171.2C238 171.2 237.104 170 236 170Z" fill="#FF0505"/>
<path d="M249 170C247.896 170 247 170.886 247 171.98C247 172.863 247.35 174.958 250.795 177.076C250.857 177.114 250.928 177.133 251 177.133C251.072 177.133 251.143 177.114 251.205 177.076C254.65 174.958 255 172.863 255 171.98C255 170.886 254.104 170 253 170C251.896 170 251 171.2 251 171.2C251 171.2 250.104 170 249 170Z" fill="#FF0505"/>
<path d="M262 170C260.896 170 260 170.886 260 171.98C260 172.863 260.35 174.958 263.795 177.076C263.857 177.114 263.928 177.133 264 177.133C264.072 177.133 264.143 177.114 264.205 177.076C267.65 174.958 268 172.863 268 171.98C268 170.886 267.104 170 266 170C264.896 170 264 171.2 264 171.2C264 171.2 263.104 170 262 170Z" fill="#FF0505"/>
<path d="M184 0C182.896 0 182 0.8864 182 1.98C182 2.8628 182.35 4.958 185.795 7.076C185.857 7.11355 185.928 7.13341 186 7.13341C186.072 7.13341 186.143 7.11355 186.205 7.076C189.65 4.958 190 2.8628 190 1.98C190 0.8864 189.104 0 188 0C186.896 0 186 1.2 186 1.2C186 1.2 185.104 0 184 0Z" fill="#FF0505"/>
<path d="M184 12.1334C182.896 12.1334 182 13.0198 182 14.1134C182 14.9962 182.35 17.0914 185.795 19.2094C185.857 19.247 185.928 19.2668 186 19.2668C186.072 19.2668 186.143 19.247 186.205 19.2094C189.65 17.0914 190 14.9962 190 14.1134C190 13.0198 189.104 12.1334 188 12.1334C186.896 12.1334 186 13.3334 186 13.3334C186 13.3334 185.104 12.1334 184 12.1334Z" fill="#FF0505"/>
<path d="M184 24.2668C182.896 24.2668 182 25.1532 182 26.2468C182 27.1296 182.35 29.2248 185.795 31.3428C185.857 31.3804 185.928 31.4002 186 31.4002C186.072 31.4002 186.143 31.3804 186.205 31.3428C189.65 29.2248 190 27.1296 190 26.2468C190 25.1532 189.104 24.2668 188 24.2668C186.896 24.2668 186 25.4668 186 25.4668C186 25.4668 185.104 24.2668 184 24.2668Z" fill="#FF0505"/>
<path d="M184 36.4002C182.896 36.4002 182 37.2866 182 38.3802C182 39.263 182.35 41.3582 185.795 43.4762C185.857 43.5138 185.928 43.5336 186 43.5336C186.072 43.5336 186.143 43.5138 186.205 43.4762C189.65 41.3582 190 39.263 190 38.3802C190 37.2866 189.104 36.4002 188 36.4002C186.896 36.4002 186 37.6002 186 37.6002C186 37.6002 185.104 36.4002 184 36.4002Z" fill="#FF0505"/>
<path d="M184 48.5336C182.896 48.5336 182 49.42 182 50.5136C182 51.3964 182.35 53.4916 185.795 55.6096C185.857 55.6472 185.928 55.667 186 55.667C186.072 55.667 186.143 55.6472 186.205 55.6096C189.65 53.4916 190 51.3964 190 50.5136C190 49.42 189.104 48.5336 188 48.5336C186.896 48.5336 186 49.7336 186 49.7336C186 49.7336 185.104 48.5336 184 48.5336Z" fill="#FF0505"/>
<path d="M184 60.667C182.896 60.667 182 61.5534 182 62.647C182 63.5298 182.35 65.625 185.795 67.743C185.857 67.7806 185.928 67.8005 186 67.8005C186.072 67.8005 186.143 67.7806 186.205 67.743C189.65 65.625 190 63.5298 190 62.647C190 61.5534 189.104 60.667 188 60.667C186.896 60.667 186 61.867 186 61.867C186 61.867 185.104 60.667 184 60.667Z" fill="#FF0505"/>
<path d="M184 72.8005C182.896 72.8005 182 73.6869 182 74.7805C182 75.6633 182.35 77.7585 185.795 79.8765C185.857 79.914 185.928 79.9339 186 79.9339C186.072 79.9339 186.143 79.914 186.205 79.8765C189.65 77.7585 190 75.6633 190 74.7805C190 73.6869 189.104 72.8005 188 72.8005C186.896 72.8005 186 74.0005 186 74.0005C186 74.0005 185.104 72.8005 184 72.8005Z" fill="#FF0505"/>
<path d="M184 84.9339C182.896 84.9339 182 85.8203 182 86.9139C182 87.7967 182.35 89.8919 185.795 92.0099C185.857 92.0474 185.928 92.0673 186 92.0673C186.072 92.0673 186.143 92.0474 186.205 92.0099C189.65 89.8919 190 87.7967 190 86.9139C190 85.8203 189.104 84.9339 188 84.9339C186.896 84.9339 186 86.1339 186 86.1339C186 86.1339 185.104 84.9339 184 84.9339Z" fill="#FF0505"/>
<path d="M184 97.0673C182.896 97.0673 182 97.9537 182 99.0473C182 99.9301 182.35 102.025 185.795 104.143C185.857 104.181 185.928 104.201 186 104.201C186.072 104.201 186.143 104.181 186.205 104.143C189.65 102.025 190 99.9301 190 99.0473C190 97.9537 189.104 97.0673 188 97.0673C186.896 97.0673 186 98.2673 186 98.2673C186 98.2673 185.104 97.0673 184 97.0673Z" fill="#FF0505"/>
<path d="M184 109.201C182.896 109.201 182 110.087 182 111.181C182 112.063 182.35 114.159 185.795 116.277C185.857 116.314 185.928 116.334 186 116.334C186.072 116.334 186.143 116.314 186.205 116.277C189.65 114.159 190 112.063 190 111.181C190 110.087 189.104 109.201 188 109.201C186.896 109.201 186 110.401 186 110.401C186 110.401 185.104 109.201 184 109.201Z" fill="#FF0505"/>
<path d="M184 121.334C182.896 121.334 182 122.22 182 123.314C182 124.197 182.35 126.292 185.795 128.41C185.857 128.448 185.928 128.467 186 128.467C186.072 128.467 186.143 128.448 186.205 128.41C189.65 126.292 190 124.197 190 123.314C190 122.22 189.104 121.334 188 121.334C186.896 121.334 186 122.534 186 122.534C186 122.534 185.104 121.334 184 121.334Z" fill="#FF0505"/>
<path d="M184 133.467C182.896 133.467 182 134.354 182 135.447C182 136.33 182.35 138.425 185.795 140.543C185.857 140.581 185.928 140.601 186 140.601C186.072 140.601 186.143 140.581 186.205 140.543C189.65 138.425 190 136.33 190 135.447C190 134.354 189.104 133.467 188 133.467C186.896 133.467 186 134.667 186 134.667C186 134.667 185.104 133.467 184 133.467Z" fill="#FF0505"/>
<path d="M184 145.601C182.896 145.601 182 146.487 182 147.581C182 148.464 182.35 150.559 185.795 152.677C185.857 152.714 185.928 152.734 186 152.734C186.072 152.734 186.143 152.714 186.205 152.677C189.65 150.559 190 148.464 190 147.581C190 146.487 189.104 145.601 188 145.601C186.896 145.601 186 146.801 186 146.801C186 146.801 185.104 145.601 184 145.601Z" fill="#FF0505"/>
<path d="M184 157.734C182.896 157.734 182 158.621 182 159.714C182 160.597 182.35 162.692 185.795 164.81C185.857 164.848 185.928 164.868 186 164.868C186.072 164.868 186.143 164.848 186.205 164.81C189.65 162.692 190 160.597 190 159.714C190 158.621 189.104 157.734 188 157.734C186.896 157.734 186 158.934 186 158.934C186 158.934 185.104 157.734 184 157.734Z" fill="#FF0505"/>
<path d="M184 169.868C182.896 169.868 182 170.754 182 171.848C182 172.731 182.35 174.826 185.795 176.944C185.857 176.981 185.928 177.001 186 177.001C186.072 177.001 186.143 176.981 186.205 176.944C189.65 174.826 190 172.731 190 171.848C190 170.754 189.104 169.868 188 169.868C186.896 169.868 186 171.068 186 171.068C186 171.068 185.104 169.868 184 169.868Z" fill="#FF0505"/>
<path d="M184 182.001C182.896 182.001 182 182.888 182 183.981C182 184.864 182.35 186.959 185.795 189.077C185.857 189.115 185.928 189.135 186 189.135C186.072 189.135 186.143 189.115 186.205 189.077C189.65 186.959 190 184.864 190 183.981C190 182.888 189.104 182.001 188 182.001C186.896 182.001 186 183.201 186 183.201C186 183.201 185.104 182.001 184 182.001Z" fill="#FF0505"/>
<path d="M184 194.135C182.896 194.135 182 195.021 182 196.115C182 196.997 182.35 199.093 185.795 201.211C185.857 201.248 185.928 201.268 186 201.268C186.072 201.268 186.143 201.248 186.205 201.211C189.65 199.093 190 196.997 190 196.115C190 195.021 189.104 194.135 188 194.135C186.896 194.135 186 195.335 186 195.335C186 195.335 185.104 194.135 184 194.135Z" fill="#FF0505"/>
<path d="M184 206.268C182.896 206.268 182 207.154 182 208.248C182 209.131 182.35 211.226 185.795 213.344C185.857 213.381 185.928 213.401 186 213.401C186.072 213.401 186.143 213.381 186.205 213.344C189.65 211.226 190 209.131 190 208.248C190 207.154 189.104 206.268 188 206.268C186.896 206.268 186 207.468 186 207.468C186 207.468 185.104 206.268 184 206.268Z" fill="#FF0505"/>
<path d="M184 218.401C182.896 218.401 182 219.288 182 220.381C182 221.264 182.35 223.359 185.795 225.477C185.857 225.515 185.928 225.535 186 225.535C186.072 225.535 186.143 225.515 186.205 225.477C189.65 223.359 190 221.264 190 220.381C190 219.288 189.104 218.401 188 218.401C186.896 218.401 186 219.601 186 219.601C186 219.601 185.104 218.401 184 218.401Z" fill="#FF0505"/>
<path d="M184 230.535C182.896 230.535 182 231.421 182 232.515C182 233.398 182.35 235.493 185.795 237.611C185.857 237.648 185.928 237.668 186 237.668C186.072 237.668 186.143 237.648 186.205 237.611C189.65 235.493 190 233.398 190 232.515C190 231.421 189.104 230.535 188 230.535C186.896 230.535 186 231.735 186 231.735C186 231.735 185.104 230.535 184 230.535Z" fill="#FF0505"/>
<path d="M184 242.668C182.896 242.668 182 243.555 182 244.648C182 245.531 182.35 247.626 185.795 249.744C185.857 249.782 185.928 249.802 186 249.802C186.072 249.802 186.143 249.782 186.205 249.744C189.65 247.626 190 245.531 190 244.648C190 243.555 189.104 242.668 188 242.668C186.896 242.668 186 243.868 186 243.868C186 243.868 185.104 242.668 184 242.668Z" fill="#FF0505"/>
</svg>
